<?xml version="1.0" encoding="utf-8"?>
<!-- Generator: Adobe Illustrator 24.1.0, SVG Export Plug-In . SVG Version: 6.00 Build 0)  -->
<svg version="1.1" id="Logo" xmlns="http://www.w3.org/2000/svg" xmlns:xlink="http://www.w3.org/1999/xlink" x="0px" y="0px"
	 viewBox="0 0 512 512" style="enable-background:new 0 0 512 512;" xml:space="preserve">
<path d="M162.53,463.84c190.14,0,294.13-157.53,294.13-294.13c0-4.47,0-8.93-0.3-13.36c20.23-14.63,37.7-32.75,51.58-53.51
	c-18.87,8.36-38.88,13.84-59.37,16.26c21.58-12.92,37.73-33.24,45.45-57.18c-20.29,12.04-42.49,20.53-65.64,25.09
	c-39.15-41.63-104.63-43.64-146.26-4.49c-26.85,25.25-38.24,62.87-29.91,98.77c-83.12-4.17-160.56-43.43-213.05-108.01
	c-27.44,47.23-13.42,107.66,32.01,138c-16.45-0.49-32.54-4.93-46.92-12.94c0,0.42,0,0.87,0,1.31c0.01,49.21,34.7,91.59,82.94,101.34
	c-15.22,4.15-31.19,4.76-46.68,1.77c13.54,42.11,52.35,70.96,96.58,71.79c-36.61,28.77-81.83,44.39-128.38,44.34
	c-8.22-0.02-16.44-0.51-24.61-1.49c47.27,30.34,102.28,46.43,158.45,46.36"/>
</svg>
